<svg xmlns="http://www.w3.org/2000/svg" version="1.1" width="561" height="131">
<path d="M 17.985352 53.594238 L 17.985352 64.594238 L 17.061523 64.594238 L 17.061523 53.594238 Z " fill="rgb(0, 0, 0)" fill-opacity="1.000000" />
<path d="M 17.985352 66.594238 L 17.985352 77.594238 L 17.061523 77.594238 L 17.061523 66.594238 Z " fill="rgb(0, 0, 0)" fill-opacity="1.000000" />
<path d="M 17.985352 79.594238 L 17.985352 90.594238 L 17.061523 90.594238 L 17.061523 79.594238 Z " fill="rgb(0, 0, 0)" fill-opacity="1.000000" />
<path d="M 22.573730 92.980957 L 26.795410 102.020508 L 25.774902 102.020508 L 21.547852 92.980957 Z " fill="rgb(0, 0, 0)" fill-opacity="1.000000" />
<path d="M 34.574219 102.020508 L 34.574219 102.933594 L 28.000000 102.933594 L 28.000000 102.020508 Z " fill="rgb(0, 0, 0)" fill-opacity="1.000000" />
<path d="M 36.573730 92.980957 L 40.795410 102.020508 L 39.774902 102.020508 L 35.547852 92.980957 Z " fill="rgb(0, 0, 0)" fill-opacity="1.000000" />
<path d="M 325.985352 92.594238 L 325.985352 103.594238 L 325.061523 103.594238 L 325.061523 92.594238 Z " fill="rgb(0, 0, 0)" fill-opacity="1.000000" />
<path d="M 335.574219 102.020508 L 335.574219 102.933594 L 329.000000 102.933594 L 329.000000 102.020508 Z " fill="rgb(0, 0, 0)" fill-opacity="1.000000" />
<path d="M 342.574219 102.020508 L 342.574219 102.933594 L 336.000000 102.933594 L 336.000000 102.020508 Z " fill="rgb(0, 0, 0)" fill-opacity="1.000000" />
<path d="M 349.574219 102.020508 L 349.574219 102.933594 L 343.000000 102.933594 L 343.000000 102.020508 Z " fill="rgb(0, 0, 0)" fill-opacity="1.000000" />
<path d="M 354.774902 92.980957 L 355.795410 92.980957 L 351.573730 102.020508 L 350.547852 102.020508 Z " fill="rgb(0, 0, 0)" fill-opacity="1.000000" />
<path d="M 501.774902 92.980957 L 502.795410 92.980957 L 498.573730 102.020508 L 497.547852 102.020508 Z " fill="rgb(0, 0, 0)" fill-opacity="1.000000" />
<path d="M 510.574219 102.020508 L 510.574219 102.933594 L 504.000000 102.933594 L 504.000000 102.020508 Z " fill="rgb(0, 0, 0)" fill-opacity="1.000000" />
<path d="M 515.774902 92.980957 L 516.795410 92.980957 L 512.573730 102.020508 L 511.547852 102.020508 Z " fill="rgb(0, 0, 0)" fill-opacity="1.000000" />
<path d="M 31.985352 53.594238 L 31.985352 64.594238 L 31.061523 64.594238 L 31.061523 53.594238 Z " fill="rgb(0, 0, 0)" fill-opacity="1.000000" />
<path d="M 31.985352 66.594238 L 31.985352 77.594238 L 31.061523 77.594238 L 31.061523 66.594238 Z " fill="rgb(0, 0, 0)" fill-opacity="1.000000" />
<path d="M 31.985352 79.594238 L 31.985352 90.594238 L 31.061523 90.594238 L 31.061523 79.594238 Z " fill="rgb(0, 0, 0)" fill-opacity="1.000000" />
<path d="M 52.985352 53.594238 L 52.985352 64.594238 L 52.061523 64.594238 L 52.061523 53.594238 Z " fill="rgb(0, 0, 0)" fill-opacity="1.000000" />
<path d="M 52.985352 66.594238 L 52.985352 77.594238 L 52.061523 77.594238 L 52.061523 66.594238 Z " fill="rgb(0, 0, 0)" fill-opacity="1.000000" />
<path d="M 52.985352 79.594238 L 52.985352 90.594238 L 52.061523 90.594238 L 52.061523 79.594238 Z " fill="rgb(0, 0, 0)" fill-opacity="1.000000" />
<path d="M 62.574219 89.020508 L 62.574219 89.933594 L 56.000000 89.933594 L 56.000000 89.020508 Z " fill="rgb(0, 0, 0)" fill-opacity="1.000000" />
<path d="M 69.574219 89.020508 L 69.574219 89.933594 L 63.000000 89.933594 L 63.000000 89.020508 Z " fill="rgb(0, 0, 0)" fill-opacity="1.000000" />
<path d="M 76.574219 89.020508 L 76.574219 89.933594 L 70.000000 89.933594 L 70.000000 89.020508 Z " fill="rgb(0, 0, 0)" fill-opacity="1.000000" />
<path d="M 83.574219 89.020508 L 83.574219 89.933594 L 77.000000 89.933594 L 77.000000 89.020508 Z " fill="rgb(0, 0, 0)" fill-opacity="1.000000" />
<path d="M 90.574219 89.020508 L 90.574219 89.933594 L 84.000000 89.933594 L 84.000000 89.020508 Z " fill="rgb(0, 0, 0)" fill-opacity="1.000000" />
<path d="M 92.573730 79.980957 L 96.795410 89.020508 L 95.774902 89.020508 L 91.547852 79.980957 Z " fill="rgb(0, 0, 0)" fill-opacity="1.000000" />
<path d="M 104.574219 89.020508 L 104.574219 89.933594 L 98.000000 89.933594 L 98.000000 89.020508 Z " fill="rgb(0, 0, 0)" fill-opacity="1.000000" />
<path d="M 111.574219 89.020508 L 111.574219 89.933594 L 105.000000 89.933594 L 105.000000 89.020508 Z " fill="rgb(0, 0, 0)" fill-opacity="1.000000" />
<path d="M 114.374023 86.061035 L 116.049805 86.061035 L 116.049805 87.484375 L 114.857422 89.799316 L 113.783203 89.804688 L 114.374023 87.484375 Z " fill="rgb(0, 0, 0)" fill-opacity="1.000000" />
<path d="M 125.574219 89.020508 L 125.574219 89.933594 L 119.000000 89.933594 L 119.000000 89.020508 Z " fill="rgb(0, 0, 0)" fill-opacity="1.000000" />
<path d="M 129.985352 79.594238 L 129.985352 90.594238 L 129.061523 90.594238 L 129.061523 79.594238 Z " fill="rgb(0, 0, 0)" fill-opacity="1.000000" />
<path d="M 134.573730 79.980957 L 138.795410 89.020508 L 137.774902 89.020508 L 133.547852 79.980957 Z " fill="rgb(0, 0, 0)" fill-opacity="1.000000" />
<path d="M 146.574219 89.020508 L 146.574219 89.933594 L 140.000000 89.933594 L 140.000000 89.020508 Z " fill="rgb(0, 0, 0)" fill-opacity="1.000000" />
<path d="M 153.574219 89.020508 L 153.574219 89.933594 L 147.000000 89.933594 L 147.000000 89.020508 Z " fill="rgb(0, 0, 0)" fill-opacity="1.000000" />
<path d="M 160.574219 89.020508 L 160.574219 89.933594 L 154.000000 89.933594 L 154.000000 89.020508 Z " fill="rgb(0, 0, 0)" fill-opacity="1.000000" />
<path d="M 162.573730 79.980957 L 166.795410 89.020508 L 165.774902 89.020508 L 161.547852 79.980957 Z " fill="rgb(0, 0, 0)" fill-opacity="1.000000" />
<path d="M 174.574219 89.020508 L 174.574219 89.933594 L 168.000000 89.933594 L 168.000000 89.020508 Z " fill="rgb(0, 0, 0)" fill-opacity="1.000000" />
<path d="M 181.574219 89.020508 L 181.574219 89.933594 L 175.000000 89.933594 L 175.000000 89.020508 Z " fill="rgb(0, 0, 0)" fill-opacity="1.000000" />
<path d="M 184.374023 86.061035 L 186.049805 86.061035 L 186.049805 87.484375 L 184.857422 89.799316 L 183.783203 89.804688 L 184.374023 87.484375 Z " fill="rgb(0, 0, 0)" fill-opacity="1.000000" />
<path d="M 195.574219 89.020508 L 195.574219 89.933594 L 189.000000 89.933594 L 189.000000 89.020508 Z " fill="rgb(0, 0, 0)" fill-opacity="1.000000" />
<path d="M 199.985352 79.594238 L 199.985352 90.594238 L 199.061523 90.594238 L 199.061523 79.594238 Z " fill="rgb(0, 0, 0)" fill-opacity="1.000000" />
<path d="M 232.573730 79.980957 L 236.795410 89.020508 L 235.774902 89.020508 L 231.547852 79.980957 Z " fill="rgb(0, 0, 0)" fill-opacity="1.000000" />
<path d="M 244.574219 89.020508 L 244.574219 89.933594 L 238.000000 89.933594 L 238.000000 89.020508 Z " fill="rgb(0, 0, 0)" fill-opacity="1.000000" />
<path d="M 249.774902 79.980957 L 250.795410 79.980957 L 246.573730 89.020508 L 245.547852 89.020508 Z " fill="rgb(0, 0, 0)" fill-opacity="1.000000" />
<path d="M 260.573730 79.980957 L 264.795410 89.020508 L 263.774902 89.020508 L 259.547852 79.980957 Z " fill="rgb(0, 0, 0)" fill-opacity="1.000000" />
<path d="M 272.574219 89.020508 L 272.574219 89.933594 L 266.000000 89.933594 L 266.000000 89.020508 Z " fill="rgb(0, 0, 0)" fill-opacity="1.000000" />
<path d="M 279.574219 89.020508 L 279.574219 89.933594 L 273.000000 89.933594 L 273.000000 89.020508 Z " fill="rgb(0, 0, 0)" fill-opacity="1.000000" />
<path d="M 286.574219 89.020508 L 286.574219 89.933594 L 280.000000 89.933594 L 280.000000 89.020508 Z " fill="rgb(0, 0, 0)" fill-opacity="1.000000" />
<path d="M 290.985352 79.594238 L 290.985352 90.594238 L 290.061523 90.594238 L 290.061523 79.594238 Z " fill="rgb(0, 0, 0)" fill-opacity="1.000000" />
<path d="M 300.574219 89.020508 L 300.574219 89.933594 L 294.000000 89.933594 L 294.000000 89.020508 Z " fill="rgb(0, 0, 0)" fill-opacity="1.000000" />
<path d="M 304.985352 79.594238 L 304.985352 90.594238 L 304.061523 90.594238 L 304.061523 79.594238 Z " fill="rgb(0, 0, 0)" fill-opacity="1.000000" />
<path d="M 323.573730 79.980957 L 327.795410 89.020508 L 326.774902 89.020508 L 322.547852 79.980957 Z " fill="rgb(0, 0, 0)" fill-opacity="1.000000" />
<path d="M 335.574219 89.020508 L 335.574219 89.933594 L 329.000000 89.933594 L 329.000000 89.020508 Z " fill="rgb(0, 0, 0)" fill-opacity="1.000000" />
<path d="M 342.574219 89.020508 L 342.574219 89.933594 L 336.000000 89.933594 L 336.000000 89.020508 Z " fill="rgb(0, 0, 0)" fill-opacity="1.000000" />
<path d="M 345.374023 86.061035 L 347.049805 86.061035 L 347.049805 87.484375 L 345.857422 89.799316 L 344.783203 89.804688 L 345.374023 87.484375 Z " fill="rgb(0, 0, 0)" fill-opacity="1.000000" />
<path d="M 360.985352 79.594238 L 360.985352 90.594238 L 360.061523 90.594238 L 360.061523 79.594238 Z " fill="rgb(0, 0, 0)" fill-opacity="1.000000" />
<path d="M 370.574219 89.020508 L 370.574219 89.933594 L 364.000000 89.933594 L 364.000000 89.020508 Z " fill="rgb(0, 0, 0)" fill-opacity="1.000000" />
<path d="M 374.985352 79.594238 L 374.985352 90.594238 L 374.061523 90.594238 L 374.061523 79.594238 Z " fill="rgb(0, 0, 0)" fill-opacity="1.000000" />
<path d="M 384.574219 89.020508 L 384.574219 89.933594 L 378.000000 89.933594 L 378.000000 89.020508 Z " fill="rgb(0, 0, 0)" fill-opacity="1.000000" />
<path d="M 388.985352 79.594238 L 388.985352 90.594238 L 388.061523 90.594238 L 388.061523 79.594238 Z " fill="rgb(0, 0, 0)" fill-opacity="1.000000" />
<path d="M 402.985352 79.594238 L 402.985352 90.594238 L 402.061523 90.594238 L 402.061523 79.594238 Z " fill="rgb(0, 0, 0)" fill-opacity="1.000000" />
<path d="M 412.574219 89.020508 L 412.574219 89.933594 L 406.000000 89.933594 L 406.000000 89.020508 Z " fill="rgb(0, 0, 0)" fill-opacity="1.000000" />
<path d="M 416.985352 79.594238 L 416.985352 90.594238 L 416.061523 90.594238 L 416.061523 79.594238 Z " fill="rgb(0, 0, 0)" fill-opacity="1.000000" />
<path d="M 421.573730 79.980957 L 425.795410 89.020508 L 424.774902 89.020508 L 420.547852 79.980957 Z " fill="rgb(0, 0, 0)" fill-opacity="1.000000" />
<path d="M 433.574219 89.020508 L 433.574219 89.933594 L 427.000000 89.933594 L 427.000000 89.020508 Z " fill="rgb(0, 0, 0)" fill-opacity="1.000000" />
<path d="M 440.574219 89.020508 L 440.574219 89.933594 L 434.000000 89.933594 L 434.000000 89.020508 Z " fill="rgb(0, 0, 0)" fill-opacity="1.000000" />
<path d="M 447.574219 89.020508 L 447.574219 89.933594 L 441.000000 89.933594 L 441.000000 89.020508 Z " fill="rgb(0, 0, 0)" fill-opacity="1.000000" />
<path d="M 451.985352 79.594238 L 451.985352 90.594238 L 451.061523 90.594238 L 451.061523 79.594238 Z " fill="rgb(0, 0, 0)" fill-opacity="1.000000" />
<path d="M 461.574219 89.020508 L 461.574219 89.933594 L 455.000000 89.933594 L 455.000000 89.020508 Z " fill="rgb(0, 0, 0)" fill-opacity="1.000000" />
<path d="M 465.985352 79.594238 L 465.985352 90.594238 L 465.061523 90.594238 L 465.061523 79.594238 Z " fill="rgb(0, 0, 0)" fill-opacity="1.000000" />
<path d="M 507.985352 79.594238 L 507.985352 90.594238 L 507.061523 90.594238 L 507.061523 79.594238 Z " fill="rgb(0, 0, 0)" fill-opacity="1.000000" />
<path d="M 521.985352 79.594238 L 521.985352 90.594238 L 521.061523 90.594238 L 521.061523 79.594238 Z " fill="rgb(0, 0, 0)" fill-opacity="1.000000" />
<path d="M 66.985352 53.594238 L 66.985352 64.594238 L 66.061523 64.594238 L 66.061523 53.594238 Z " fill="rgb(0, 0, 0)" fill-opacity="1.000000" />
<path d="M 66.985352 66.594238 L 66.985352 77.594238 L 66.061523 77.594238 L 66.061523 66.594238 Z " fill="rgb(0, 0, 0)" fill-opacity="1.000000" />
<path d="M 76.574219 76.020508 L 76.574219 76.933594 L 70.000000 76.933594 L 70.000000 76.020508 Z " fill="rgb(0, 0, 0)" fill-opacity="1.000000" />
<path d="M 83.574219 76.020508 L 83.574219 76.933594 L 77.000000 76.933594 L 77.000000 76.020508 Z " fill="rgb(0, 0, 0)" fill-opacity="1.000000" />
<path d="M 87.985352 66.594238 L 87.985352 77.594238 L 87.061523 77.594238 L 87.061523 66.594238 Z " fill="rgb(0, 0, 0)" fill-opacity="1.000000" />
<path d="M 101.985352 66.594238 L 101.985352 77.594238 L 101.061523 77.594238 L 101.061523 66.594238 Z " fill="rgb(0, 0, 0)" fill-opacity="1.000000" />
<path d="M 111.574219 76.020508 L 111.574219 76.933594 L 105.000000 76.933594 L 105.000000 76.020508 Z " fill="rgb(0, 0, 0)" fill-opacity="1.000000" />
<path d="M 115.985352 66.594238 L 115.985352 77.594238 L 115.061523 77.594238 L 115.061523 66.594238 Z " fill="rgb(0, 0, 0)" fill-opacity="1.000000" />
<path d="M 129.985352 66.594238 L 129.985352 77.594238 L 129.061523 77.594238 L 129.061523 66.594238 Z " fill="rgb(0, 0, 0)" fill-opacity="1.000000" />
<path d="M 144.592285 66.116211 Q 143.877930 67.340820 143.526123 68.557373 Q 143.174316 69.773926 143.174316 71.009277 Q 143.174316 72.239258 143.526123 73.458496 Q 143.877930 74.677734 144.592285 75.913086 L 143.732910 75.913086 Q 142.921875 74.634766 142.524414 73.423584 Q 142.126953 72.212402 142.126953 71.009277 Q 142.126953 69.811523 142.524414 68.597656 Q 142.921875 67.383789 143.732910 66.116211 Z " fill="rgb(0, 0, 0)" fill-opacity="1.000000" />
<path d="M 153.574219 76.020508 L 153.574219 76.933594 L 147.000000 76.933594 L 147.000000 76.020508 Z " fill="rgb(0, 0, 0)" fill-opacity="1.000000" />
<path d="M 157.985352 66.594238 L 157.985352 77.594238 L 157.061523 77.594238 L 157.061523 66.594238 Z " fill="rgb(0, 0, 0)" fill-opacity="1.000000" />
<path d="M 172.592285 66.116211 Q 171.877930 67.340820 171.526123 68.557373 Q 171.174316 69.773926 171.174316 71.009277 Q 171.174316 72.239258 171.526123 73.458496 Q 171.877930 74.677734 172.592285 75.913086 L 171.732910 75.913086 Q 170.921875 74.634766 170.524414 73.423584 Q 170.126953 72.212402 170.126953 71.009277 Q 170.126953 69.811523 170.524414 68.597656 Q 170.921875 67.383789 171.732910 66.116211 Z " fill="rgb(0, 0, 0)" fill-opacity="1.000000" />
<path d="M 181.574219 76.020508 L 181.574219 76.933594 L 175.000000 76.933594 L 175.000000 76.020508 Z " fill="rgb(0, 0, 0)" fill-opacity="1.000000" />
<path d="M 185.985352 66.594238 L 185.985352 77.594238 L 185.061523 77.594238 L 185.061523 66.594238 Z " fill="rgb(0, 0, 0)" fill-opacity="1.000000" />
<path d="M 199.985352 66.594238 L 199.985352 77.594238 L 199.061523 77.594238 L 199.061523 66.594238 Z " fill="rgb(0, 0, 0)" fill-opacity="1.000000" />
<path d="M 225.573730 66.980957 L 229.795410 76.020508 L 228.774902 76.020508 L 224.547852 66.980957 Z " fill="rgb(0, 0, 0)" fill-opacity="1.000000" />
<path d="M 241.308594 74.086914 L 243.193848 66.980957 L 244.316406 66.980957 L 241.969238 75.000000 L 240.653320 75.000000 L 238.306152 66.980957 L 239.428711 66.980957 Z " fill="rgb(0, 0, 0)" fill-opacity="1.000000" />
<path d="M 256.774902 66.980957 L 257.795410 66.980957 L 253.573730 76.020508 L 252.547852 76.020508 Z " fill="rgb(0, 0, 0)" fill-opacity="1.000000" />
<path d="M 279.574219 76.020508 L 279.574219 76.933594 L 273.000000 76.933594 L 273.000000 76.020508 Z " fill="rgb(0, 0, 0)" fill-opacity="1.000000" />
<path d="M 286.574219 76.020508 L 286.574219 76.933594 L 280.000000 76.933594 L 280.000000 76.020508 Z " fill="rgb(0, 0, 0)" fill-opacity="1.000000" />
<path d="M 291.774902 66.980957 L 292.795410 66.980957 L 288.573730 76.020508 L 287.547852 76.020508 Z " fill="rgb(0, 0, 0)" fill-opacity="1.000000" />
<path d="M 304.985352 66.594238 L 304.985352 77.594238 L 304.061523 77.594238 L 304.061523 66.594238 Z " fill="rgb(0, 0, 0)" fill-opacity="1.000000" />
<path d="M 318.985352 66.594238 L 318.985352 77.594238 L 318.061523 77.594238 L 318.061523 66.594238 Z " fill="rgb(0, 0, 0)" fill-opacity="1.000000" />
<path d="M 333.592285 66.116211 Q 332.877930 67.340820 332.526123 68.557373 Q 332.174316 69.773926 332.174316 71.009277 Q 332.174316 72.239258 332.526123 73.458496 Q 332.877930 74.677734 333.592285 75.913086 L 332.732910 75.913086 Q 331.921875 74.634766 331.524414 73.423584 Q 331.126953 72.212402 331.126953 71.009277 Q 331.126953 69.811523 331.524414 68.597656 Q 331.921875 67.383789 332.732910 66.116211 Z " fill="rgb(0, 0, 0)" fill-opacity="1.000000" />
<path d="M 342.574219 76.020508 L 342.574219 76.933594 L 336.000000 76.933594 L 336.000000 76.020508 Z " fill="rgb(0, 0, 0)" fill-opacity="1.000000" />
<path d="M 346.985352 66.594238 L 346.985352 77.594238 L 346.061523 77.594238 L 346.061523 66.594238 Z " fill="rgb(0, 0, 0)" fill-opacity="1.000000" />
<path d="M 360.985352 66.594238 L 360.985352 77.594238 L 360.061523 77.594238 L 360.061523 66.594238 Z " fill="rgb(0, 0, 0)" fill-opacity="1.000000" />
<path d="M 374.985352 66.594238 L 374.985352 77.594238 L 374.061523 77.594238 L 374.061523 66.594238 Z " fill="rgb(0, 0, 0)" fill-opacity="1.000000" />
<path d="M 388.985352 66.594238 L 388.985352 77.594238 L 388.061523 77.594238 L 388.061523 66.594238 Z " fill="rgb(0, 0, 0)" fill-opacity="1.000000" />
<path d="M 402.985352 66.594238 L 402.985352 77.594238 L 402.061523 77.594238 L 402.061523 66.594238 Z " fill="rgb(0, 0, 0)" fill-opacity="1.000000" />
<path d="M 416.985352 66.594238 L 416.985352 77.594238 L 416.061523 77.594238 L 416.061523 66.594238 Z " fill="rgb(0, 0, 0)" fill-opacity="1.000000" />
<path d="M 440.574219 76.020508 L 440.574219 76.933594 L 434.000000 76.933594 L 434.000000 76.020508 Z " fill="rgb(0, 0, 0)" fill-opacity="1.000000" />
<path d="M 447.574219 76.020508 L 447.574219 76.933594 L 441.000000 76.933594 L 441.000000 76.020508 Z " fill="rgb(0, 0, 0)" fill-opacity="1.000000" />
<path d="M 452.774902 66.980957 L 453.795410 66.980957 L 449.573730 76.020508 L 448.547852 76.020508 Z " fill="rgb(0, 0, 0)" fill-opacity="1.000000" />
<path d="M 465.985352 66.594238 L 465.985352 77.594238 L 465.061523 77.594238 L 465.061523 66.594238 Z " fill="rgb(0, 0, 0)" fill-opacity="1.000000" />
<path d="M 507.985352 66.594238 L 507.985352 77.594238 L 507.061523 77.594238 L 507.061523 66.594238 Z " fill="rgb(0, 0, 0)" fill-opacity="1.000000" />
<path d="M 521.985352 66.594238 L 521.985352 77.594238 L 521.061523 77.594238 L 521.061523 66.594238 Z " fill="rgb(0, 0, 0)" fill-opacity="1.000000" />
<path d="M 87.985352 53.594238 L 87.985352 64.594238 L 87.061523 64.594238 L 87.061523 53.594238 Z " fill="rgb(0, 0, 0)" fill-opacity="1.000000" />
<path d="M 101.985352 53.594238 L 101.985352 64.594238 L 101.061523 64.594238 L 101.061523 53.594238 Z " fill="rgb(0, 0, 0)" fill-opacity="1.000000" />
<path d="M 115.985352 53.594238 L 115.985352 64.594238 L 115.061523 64.594238 L 115.061523 53.594238 Z " fill="rgb(0, 0, 0)" fill-opacity="1.000000" />
<path d="M 129.985352 53.594238 L 129.985352 64.594238 L 129.061523 64.594238 L 129.061523 53.594238 Z " fill="rgb(0, 0, 0)" fill-opacity="1.000000" />
<path d="M 137.774902 53.980957 L 138.795410 53.980957 L 134.573730 63.020508 L 133.547852 63.020508 Z " fill="rgb(0, 0, 0)" fill-opacity="1.000000" />
<path d="M 153.574219 63.020508 L 153.574219 63.933594 L 147.000000 63.933594 L 147.000000 63.020508 Z " fill="rgb(0, 0, 0)" fill-opacity="1.000000" />
<path d="M 160.574219 63.020508 L 160.574219 63.933594 L 154.000000 63.933594 L 154.000000 63.020508 Z " fill="rgb(0, 0, 0)" fill-opacity="1.000000" />
<path d="M 165.774902 53.980957 L 166.795410 53.980957 L 162.573730 63.020508 L 161.547852 63.020508 Z " fill="rgb(0, 0, 0)" fill-opacity="1.000000" />
<path d="M 181.574219 63.020508 L 181.574219 63.933594 L 175.000000 63.933594 L 175.000000 63.020508 Z " fill="rgb(0, 0, 0)" fill-opacity="1.000000" />
<path d="M 184.562012 53.202148 L 186.071289 55.221680 L 185.244141 55.221680 L 183.498535 53.202148 Z " fill="rgb(0, 0, 0)" fill-opacity="1.000000" />
<path d="M 199.985352 53.594238 L 199.985352 64.594238 L 199.061523 64.594238 L 199.061523 53.594238 Z " fill="rgb(0, 0, 0)" fill-opacity="1.000000" />
<path d="M 218.573730 53.980957 L 222.795410 63.020508 L 221.774902 63.020508 L 217.547852 53.980957 Z " fill="rgb(0, 0, 0)" fill-opacity="1.000000" />
<path d="M 232.573730 53.980957 L 236.795410 63.020508 L 235.774902 63.020508 L 231.547852 53.980957 Z " fill="rgb(0, 0, 0)" fill-opacity="1.000000" />
<path d="M 249.774902 53.980957 L 250.795410 53.980957 L 246.573730 63.020508 L 245.547852 63.020508 Z " fill="rgb(0, 0, 0)" fill-opacity="1.000000" />
<path d="M 263.774902 53.980957 L 264.795410 53.980957 L 260.573730 63.020508 L 259.547852 63.020508 Z " fill="rgb(0, 0, 0)" fill-opacity="1.000000" />
<path d="M 279.574219 63.020508 L 279.574219 63.933594 L 273.000000 63.933594 L 273.000000 63.020508 Z " fill="rgb(0, 0, 0)" fill-opacity="1.000000" />
<path d="M 288.573730 53.980957 L 292.795410 63.020508 L 291.774902 63.020508 L 287.547852 53.980957 Z " fill="rgb(0, 0, 0)" fill-opacity="1.000000" />
<path d="M 304.985352 53.631836 L 304.985352 56.978027 L 303.782227 56.978027 L 303.782227 53.631836 Z " fill="rgb(0, 0, 0)" fill-opacity="1.000000" />
<path d="M 314.574219 63.020508 L 314.574219 63.933594 L 308.000000 63.933594 L 308.000000 63.020508 Z " fill="rgb(0, 0, 0)" fill-opacity="1.000000" />
<path d="M 321.574219 63.020508 L 321.574219 63.933594 L 315.000000 63.933594 L 315.000000 63.020508 Z " fill="rgb(0, 0, 0)" fill-opacity="1.000000" />
<path d="M 326.774902 53.980957 L 327.795410 53.980957 L 323.573730 63.020508 L 322.547852 63.020508 Z " fill="rgb(0, 0, 0)" fill-opacity="1.000000" />
<path d="M 342.574219 63.020508 L 342.574219 63.933594 L 336.000000 63.933594 L 336.000000 63.020508 Z " fill="rgb(0, 0, 0)" fill-opacity="1.000000" />
<path d="M 345.562012 53.202148 L 347.071289 55.221680 L 346.244141 55.221680 L 344.498535 53.202148 Z " fill="rgb(0, 0, 0)" fill-opacity="1.000000" />
<path d="M 360.985352 53.594238 L 360.985352 64.594238 L 360.061523 64.594238 L 360.061523 53.594238 Z " fill="rgb(0, 0, 0)" fill-opacity="1.000000" />
<path d="M 374.985352 53.594238 L 374.985352 64.594238 L 374.061523 64.594238 L 374.061523 53.594238 Z " fill="rgb(0, 0, 0)" fill-opacity="1.000000" />
<path d="M 388.985352 53.631836 L 388.985352 56.978027 L 387.782227 56.978027 L 387.782227 53.631836 Z " fill="rgb(0, 0, 0)" fill-opacity="1.000000" />
<path d="M 398.574219 63.020508 L 398.574219 63.933594 L 392.000000 63.933594 L 392.000000 63.020508 Z " fill="rgb(0, 0, 0)" fill-opacity="1.000000" />
<path d="M 407.573730 53.980957 L 411.795410 63.020508 L 410.774902 63.020508 L 406.547852 53.980957 Z " fill="rgb(0, 0, 0)" fill-opacity="1.000000" />
<path d="M 424.774902 53.980957 L 425.795410 53.980957 L 421.573730 63.020508 L 420.547852 63.020508 Z " fill="rgb(0, 0, 0)" fill-opacity="1.000000" />
<path d="M 440.574219 63.020508 L 440.574219 63.933594 L 434.000000 63.933594 L 434.000000 63.020508 Z " fill="rgb(0, 0, 0)" fill-opacity="1.000000" />
<path d="M 449.573730 53.980957 L 453.795410 63.020508 L 452.774902 63.020508 L 448.547852 53.980957 Z " fill="rgb(0, 0, 0)" fill-opacity="1.000000" />
<path d="M 465.985352 53.631836 L 465.985352 56.978027 L 464.782227 56.978027 L 464.782227 53.631836 Z " fill="rgb(0, 0, 0)" fill-opacity="1.000000" />
<path d="M 475.574219 63.020508 L 475.574219 63.933594 L 469.000000 63.933594 L 469.000000 63.020508 Z " fill="rgb(0, 0, 0)" fill-opacity="1.000000" />
<path d="M 482.574219 63.020508 L 482.574219 63.933594 L 476.000000 63.933594 L 476.000000 63.020508 Z " fill="rgb(0, 0, 0)" fill-opacity="1.000000" />
<path d="M 486.985352 53.594238 L 486.985352 64.594238 L 486.061523 64.594238 L 486.061523 53.594238 Z " fill="rgb(0, 0, 0)" fill-opacity="1.000000" />
<path d="M 507.985352 53.594238 L 507.985352 64.594238 L 507.061523 64.594238 L 507.061523 53.594238 Z " fill="rgb(0, 0, 0)" fill-opacity="1.000000" />
<path d="M 521.985352 53.594238 L 521.985352 64.594238 L 521.061523 64.594238 L 521.061523 53.594238 Z " fill="rgb(0, 0, 0)" fill-opacity="1.000000" />
<path d="M 25.774902 40.980957 L 26.795410 40.980957 L 22.573730 50.020508 L 21.547852 50.020508 Z " fill="rgb(0, 0, 0)" fill-opacity="1.000000" />
<path d="M 39.774902 40.980957 L 40.795410 40.980957 L 36.573730 50.020508 L 35.547852 50.020508 Z " fill="rgb(0, 0, 0)" fill-opacity="1.000000" />
<path d="M 52.985352 40.594238 L 52.985352 51.594238 L 52.061523 51.594238 L 52.061523 40.594238 Z " fill="rgb(0, 0, 0)" fill-opacity="1.000000" />
<path d="M 66.985352 40.594238 L 66.985352 51.594238 L 66.061523 51.594238 L 66.061523 40.594238 Z " fill="rgb(0, 0, 0)" fill-opacity="1.000000" />
<path d="M 97.574219 50.020508 L 97.574219 50.933594 L 91.000000 50.933594 L 91.000000 50.020508 Z " fill="rgb(0, 0, 0)" fill-opacity="1.000000" />
<path d="M 125.574219 50.020508 L 125.574219 50.933594 L 119.000000 50.933594 L 119.000000 50.020508 Z " fill="rgb(0, 0, 0)" fill-opacity="1.000000" />
<path d="M 146.574219 50.020508 L 146.574219 50.933594 L 140.000000 50.933594 L 140.000000 50.020508 Z " fill="rgb(0, 0, 0)" fill-opacity="1.000000" />
<path d="M 153.574219 50.020508 L 153.574219 50.933594 L 147.000000 50.933594 L 147.000000 50.020508 Z " fill="rgb(0, 0, 0)" fill-opacity="1.000000" />
<path d="M 160.574219 50.020508 L 160.574219 50.933594 L 154.000000 50.933594 L 154.000000 50.020508 Z " fill="rgb(0, 0, 0)" fill-opacity="1.000000" />
<path d="M 174.574219 50.020508 L 174.574219 50.933594 L 168.000000 50.933594 L 168.000000 50.020508 Z " fill="rgb(0, 0, 0)" fill-opacity="1.000000" />
<path d="M 181.574219 50.020508 L 181.574219 50.933594 L 175.000000 50.933594 L 175.000000 50.020508 Z " fill="rgb(0, 0, 0)" fill-opacity="1.000000" />
<path d="M 195.574219 50.020508 L 195.574219 50.933594 L 189.000000 50.933594 L 189.000000 50.020508 Z " fill="rgb(0, 0, 0)" fill-opacity="1.000000" />
<path d="M 211.573730 40.980957 L 215.795410 50.020508 L 214.774902 50.020508 L 210.547852 40.980957 Z " fill="rgb(0, 0, 0)" fill-opacity="1.000000" />
<path d="M 225.573730 40.980957 L 229.795410 50.020508 L 228.774902 50.020508 L 224.547852 40.980957 Z " fill="rgb(0, 0, 0)" fill-opacity="1.000000" />
<path d="M 256.774902 40.980957 L 257.795410 40.980957 L 253.573730 50.020508 L 252.547852 50.020508 Z " fill="rgb(0, 0, 0)" fill-opacity="1.000000" />
<path d="M 270.774902 40.980957 L 271.795410 40.980957 L 267.573730 50.020508 L 266.547852 50.020508 Z " fill="rgb(0, 0, 0)" fill-opacity="1.000000" />
<path d="M 279.574219 50.020508 L 279.574219 50.933594 L 273.000000 50.933594 L 273.000000 50.020508 Z " fill="rgb(0, 0, 0)" fill-opacity="1.000000" />
<path d="M 286.574219 50.020508 L 286.574219 50.933594 L 280.000000 50.933594 L 280.000000 50.020508 Z " fill="rgb(0, 0, 0)" fill-opacity="1.000000" />
<path d="M 300.574219 50.020508 L 300.574219 50.933594 L 294.000000 50.933594 L 294.000000 50.020508 Z " fill="rgb(0, 0, 0)" fill-opacity="1.000000" />
<path d="M 314.574219 50.020508 L 314.574219 50.933594 L 308.000000 50.933594 L 308.000000 50.020508 Z " fill="rgb(0, 0, 0)" fill-opacity="1.000000" />
<path d="M 321.574219 50.020508 L 321.574219 50.933594 L 315.000000 50.933594 L 315.000000 50.020508 Z " fill="rgb(0, 0, 0)" fill-opacity="1.000000" />
<path d="M 335.574219 50.020508 L 335.574219 50.933594 L 329.000000 50.933594 L 329.000000 50.020508 Z " fill="rgb(0, 0, 0)" fill-opacity="1.000000" />
<path d="M 342.574219 50.020508 L 342.574219 50.933594 L 336.000000 50.933594 L 336.000000 50.020508 Z " fill="rgb(0, 0, 0)" fill-opacity="1.000000" />
<path d="M 356.574219 50.020508 L 356.574219 50.933594 L 350.000000 50.933594 L 350.000000 50.020508 Z " fill="rgb(0, 0, 0)" fill-opacity="1.000000" />
<path d="M 361.592285 40.116211 Q 360.877930 41.340820 360.526123 42.557373 Q 360.174316 43.773926 360.174316 45.009277 Q 360.174316 46.239258 360.526123 47.458496 Q 360.877930 48.677734 361.592285 49.913086 L 360.732910 49.913086 Q 359.921875 48.634766 359.524414 47.423584 Q 359.126953 46.212402 359.126953 45.009277 Q 359.126953 43.811523 359.524414 42.597656 Q 359.921875 41.383789 360.732910 40.116211 Z " fill="rgb(0, 0, 0)" fill-opacity="1.000000" />
<path d="M 370.574219 50.020508 L 370.574219 50.933594 L 364.000000 50.933594 L 364.000000 50.020508 Z " fill="rgb(0, 0, 0)" fill-opacity="1.000000" />
<path d="M 372.869141 40.116211 L 373.728516 40.116211 Q 374.539551 41.383789 374.937012 42.597656 Q 375.334473 43.811523 375.334473 45.009277 Q 375.334473 46.217773 374.937012 47.431641 Q 374.539551 48.645508 373.728516 49.913086 L 372.869141 49.913086 Q 373.583496 48.666992 373.935303 47.447754 Q 374.287109 46.228516 374.287109 45.009277 Q 374.287109 43.784668 373.935303 42.565430 Q 373.583496 41.346191 372.869141 40.116211 Z " fill="rgb(0, 0, 0)" fill-opacity="1.000000" />
<path d="M 384.574219 50.020508 L 384.574219 50.933594 L 378.000000 50.933594 L 378.000000 50.020508 Z " fill="rgb(0, 0, 0)" fill-opacity="1.000000" />
<path d="M 398.574219 50.020508 L 398.574219 50.933594 L 392.000000 50.933594 L 392.000000 50.020508 Z " fill="rgb(0, 0, 0)" fill-opacity="1.000000" />
<path d="M 405.574219 50.020508 L 405.574219 50.933594 L 399.000000 50.933594 L 399.000000 50.020508 Z " fill="rgb(0, 0, 0)" fill-opacity="1.000000" />
<path d="M 433.574219 50.020508 L 433.574219 50.933594 L 427.000000 50.933594 L 427.000000 50.020508 Z " fill="rgb(0, 0, 0)" fill-opacity="1.000000" />
<path d="M 440.574219 50.020508 L 440.574219 50.933594 L 434.000000 50.933594 L 434.000000 50.020508 Z " fill="rgb(0, 0, 0)" fill-opacity="1.000000" />
<path d="M 447.574219 50.020508 L 447.574219 50.933594 L 441.000000 50.933594 L 441.000000 50.020508 Z " fill="rgb(0, 0, 0)" fill-opacity="1.000000" />
<path d="M 461.574219 50.020508 L 461.574219 50.933594 L 455.000000 50.933594 L 455.000000 50.020508 Z " fill="rgb(0, 0, 0)" fill-opacity="1.000000" />
<path d="M 475.574219 50.020508 L 475.574219 50.933594 L 469.000000 50.933594 L 469.000000 50.020508 Z " fill="rgb(0, 0, 0)" fill-opacity="1.000000" />
<path d="M 482.574219 50.020508 L 482.574219 50.933594 L 476.000000 50.933594 L 476.000000 50.020508 Z " fill="rgb(0, 0, 0)" fill-opacity="1.000000" />
<path d="M 498.573730 40.980957 L 502.795410 50.020508 L 501.774902 50.020508 L 497.547852 40.980957 Z " fill="rgb(0, 0, 0)" fill-opacity="1.000000" />
<path d="M 512.573730 40.980957 L 516.795410 50.020508 L 515.774902 50.020508 L 511.547852 40.980957 Z " fill="rgb(0, 0, 0)" fill-opacity="1.000000" />
<path d="M 34.574219 37.020508 L 34.574219 37.933594 L 28.000000 37.933594 L 28.000000 37.020508 Z " fill="rgb(0, 0, 0)" fill-opacity="1.000000" />
<path d="M 41.574219 37.020508 L 41.574219 37.933594 L 35.000000 37.933594 L 35.000000 37.020508 Z " fill="rgb(0, 0, 0)" fill-opacity="1.000000" />
<path d="M 62.574219 37.020508 L 62.574219 37.933594 L 56.000000 37.933594 L 56.000000 37.020508 Z " fill="rgb(0, 0, 0)" fill-opacity="1.000000" />
<path d="M 216.574219 37.020508 L 216.574219 37.933594 L 210.000000 37.933594 L 210.000000 37.020508 Z " fill="rgb(0, 0, 0)" fill-opacity="1.000000" />
<path d="M 223.574219 37.020508 L 223.574219 37.933594 L 217.000000 37.933594 L 217.000000 37.020508 Z " fill="rgb(0, 0, 0)" fill-opacity="1.000000" />
<path d="M 265.574219 37.020508 L 265.574219 37.933594 L 259.000000 37.933594 L 259.000000 37.020508 Z " fill="rgb(0, 0, 0)" fill-opacity="1.000000" />
<path d="M 272.574219 37.020508 L 272.574219 37.933594 L 266.000000 37.933594 L 266.000000 37.020508 Z " fill="rgb(0, 0, 0)" fill-opacity="1.000000" />
<path d="M 370.574219 37.020508 L 370.574219 37.933594 L 364.000000 37.933594 L 364.000000 37.020508 Z " fill="rgb(0, 0, 0)" fill-opacity="1.000000" />
<path d="M 503.574219 37.020508 L 503.574219 37.933594 L 497.000000 37.933594 L 497.000000 37.020508 Z " fill="rgb(0, 0, 0)" fill-opacity="1.000000" />
<path d="M 510.574219 37.020508 L 510.574219 37.933594 L 504.000000 37.933594 L 504.000000 37.020508 Z " fill="rgb(0, 0, 0)" fill-opacity="1.000000" />
<path d="M 529.774902 27.980957 L 530.795410 27.980957 L 526.573730 37.020508 L 525.547852 37.020508 Z " fill="rgb(0, 0, 0)" fill-opacity="1.000000" />
<path d="M 538.574219 37.020508 L 538.574219 37.933594 L 532.000000 37.933594 L 532.000000 37.020508 Z " fill="rgb(0, 0, 0)" fill-opacity="1.000000" />
<path d="M 540.573730 27.980957 L 544.795410 37.020508 L 543.774902 37.020508 L 539.547852 27.980957 Z " fill="rgb(0, 0, 0)" fill-opacity="1.000000" />
<path d="M 552.574219 37.020508 L 552.574219 37.933594 L 546.000000 37.933594 L 546.000000 37.020508 Z " fill="rgb(0, 0, 0)" fill-opacity="1.000000" />
<path d="M 554.573730 27.980957 L 558.795410 37.020508 L 557.774902 37.020508 L 553.547852 27.980957 Z " fill="rgb(0, 0, 0)" fill-opacity="1.000000" />
<path d="M 526.573730 14.980957 L 530.795410 24.020508 L 529.774902 24.020508 L 525.547852 14.980957 Z " fill="rgb(0, 0, 0)" fill-opacity="1.000000" />
<path d="M 540.573730 14.980957 L 544.795410 24.020508 L 543.774902 24.020508 L 539.547852 14.980957 Z " fill="rgb(0, 0, 0)" fill-opacity="1.000000" />
<path d="M 557.774902 14.980957 L 558.795410 14.980957 L 554.573730 24.020508 L 553.547852 24.020508 Z " fill="rgb(0, 0, 0)" fill-opacity="1.000000" />
<path d="M 531.574219 11.020508 L 531.574219 11.933594 L 525.000000 11.933594 L 525.000000 11.020508 Z " fill="rgb(0, 0, 0)" fill-opacity="1.000000" />
<path d="M 538.574219 11.020508 L 538.574219 11.933594 L 532.000000 11.933594 L 532.000000 11.020508 Z " fill="rgb(0, 0, 0)" fill-opacity="1.000000" />
<path d="M 552.574219 11.020508 L 552.574219 11.933594 L 546.000000 11.933594 L 546.000000 11.020508 Z " fill="rgb(0, 0, 0)" fill-opacity="1.000000" />
<path d="M 559.574219 11.020508 L 559.574219 11.933594 L 553.000000 11.933594 L 553.000000 11.020508 Z " fill="rgb(0, 0, 0)" fill-opacity="1.000000" />
</svg>